<?xml version="1.0" standalone="no"?>
<!DOCTYPE svg PUBLIC "-//W3C//DTD SVG 20010904//EN"
 "http://www.w3.org/TR/2001/REC-SVG-20010904/DTD/svg10.dtd">
<svg version="1.0" xmlns="http://www.w3.org/2000/svg"
 width="30.000000pt" height="29.000000pt" viewBox="0 0 30.000000 29.000000"
 preserveAspectRatio="xMidYMid meet">

<g transform="translate(0.000000,29.000000) scale(0.100000,-0.100000)"
fill="#000000" stroke="none">
<path d="M0 145 l0 -145 150 0 150 0 0 145 0 145 -150 0 -150 0 0 -145z m41 6
c7 11 9 9 9 -7 0 -12 -6 -21 -15 -21 -9 0 -15 9 -14 21 0 13 3 16 6 7 5 -11 7
-11 14 0z m53 -23 c7 -5 4 -8 -6 -8 -12 0 -18 7 -17 23 0 15 2 17 6 7 3 -8 11
-18 17 -22z m66 12 c0 -4 -9 -10 -20 -13 -11 -3 -20 -1 -20 4 0 5 5 9 11 9 5
0 7 4 4 10 -3 6 1 7 9 4 9 -3 16 -10 16 -14z m34 -12 c7 -5 4 -8 -6 -8 -12 0
-18 7 -17 23 0 15 2 17 6 7 3 -8 11 -18 17 -22z m23 0 c-3 -7 -5 -2 -5 12 0
14 2 19 5 13 2 -7 2 -19 0 -25z m50 10 c1 -11 -5 -18 -15 -18 -15 0 -15 2 -2
10 10 6 11 10 3 10 -7 0 -13 4 -13 8 0 17 26 8 27 -10z" fill="#1877F2"/>
</g>
</svg>
